<?xml version="1.0" encoding="UTF-8" standalone="no"?><!DOCTYPE svg PUBLIC "-//W3C//DTD SVG 1.1//EN" "http://www.w3.org/Graphics/SVG/1.1/DTD/svg11.dtd"><svg width="100%" height="100%" viewBox="0 0 134 134" version="1.1" xmlns="http://www.w3.org/2000/svg" xmlns:xlink="http://www.w3.org/1999/xlink" xml:space="preserve" xmlns:serif="http://www.serif.com/" style="fill-rule:evenodd;clip-rule:evenodd;stroke-linejoin:round;stroke-miterlimit:2;"><g id="Logo"><path d="M0,66.667c0,-36.795 29.872,-66.667 66.667,-66.667c36.794,0 66.666,29.872 66.666,66.667c0,36.794 -29.872,66.666 -66.666,66.666c-19.903,0 -37.781,-8.74 -50,-22.589l-0,14.256c-0,4.599 -3.734,8.333 -8.334,8.333c-4.599,0 -8.333,-3.734 -8.333,-8.333l-0,-58.333Zm16.667,-0c-0,27.595 22.404,50 50,50c27.595,-0 50,-22.405 50,-50c-0,-27.596 -22.405,-50 -50,-50c-27.596,-0 -50,22.404 -50,50Z" style="fill:#e9263c;"/><path d="M90.232,90.232c-6.033,6.034 -14.367,9.768 -23.565,9.768c-18.398,0 -33.334,-14.936 -33.334,-33.333c0,-18.398 14.936,-33.334 33.334,-33.334c9.198,0 17.532,3.734 23.566,9.768c1.539,1.512 2.494,3.616 2.494,5.942c-0,4.599 -3.734,8.333 -8.333,8.333c-2.326,-0 -4.431,-0.954 -5.944,-2.493c-3.017,-3.017 -7.184,-4.883 -11.783,-4.883c-9.199,0 -16.667,7.468 -16.667,16.667c0,9.198 7.468,16.666 16.667,16.666c4.599,0 8.766,-1.866 11.783,-4.883c1.512,-1.539 3.617,-2.494 5.944,-2.494c4.599,-0 8.333,3.734 8.333,8.333c-0,2.326 -0.955,4.431 -2.495,5.943Z" style="fill:#1e293b;"/></g></svg>